{
	"patcher" : 	{
		"fileversion" : 1,
		"appversion" : 		{
			"major" : 9,
			"minor" : 0,
			"revision" : 1,
			"architecture" : "x64",
			"modernui" : 1
		}
,
		"classnamespace" : "box",
		"rect" : [ 41.0, 100.0, 688.0, 385.0 ],
		"openinpresentation" : 1,
		"gridsize" : [ 15.0, 15.0 ],
		"boxes" : [ 			{
				"box" : 				{
					"id" : "obj-72",
					"maxclass" : "comment",
					"numinlets" : 1,
					"numoutlets" : 0,
					"patching_rect" : [ 1435.401817866734064, 223.720095753669739, 51.0, 20.0 ],
					"presentation" : 1,
					"presentation_rect" : [ 324.761946380138397, 303.812295824289322, 51.0, 20.0 ],
					"text" : "Window"
				}

			}
, 			{
				"box" : 				{
					"hidden" : 1,
					"id" : "obj-70",
					"linecount" : 2,
					"maxclass" : "comment",
					"numinlets" : 1,
					"numoutlets" : 0,
					"patching_rect" : [ 1251.260126028741979, 216.954272985458374, 52.0, 33.0 ],
					"presentation" : 1,
					"presentation_rect" : [ 453.333391427993774, 303.76467689871788, 86.0, 20.0 ],
					"text" : "WindowShape",
					"varname" : "windsizetxt"
				}

			}
, 			{
				"box" : 				{
					"id" : "obj-37",
					"maxclass" : "comment",
					"numinlets" : 1,
					"numoutlets" : 0,
					"patching_rect" : [ 308.293589626039761, 160.365666270256042, 35.0, 20.0 ],
					"presentation" : 1,
					"presentation_rect" : [ 558.252419531345367, 240.776695728302002, 35.0, 20.0 ],
					"text" : "reset"
				}

			}
, 			{
				"box" : 				{
					"id" : "obj-19",
					"maxclass" : "comment",
					"numinlets" : 1,
					"numoutlets" : 0,
					"patching_rect" : [ 857.923653296061843, 226.985918521881104, 25.0, 20.0 ],
					"presentation" : 1,
					"presentation_rect" : [ 358.0, 267.0, 25.0, 20.0 ],
					"text" : "I_2"
				}

			}
, 			{
				"box" : 				{
					"id" : "obj-21",
					"maxclass" : "comment",
					"numinlets" : 1,
					"numoutlets" : 0,
					"patching_rect" : [ 1123.179268802915431, 223.454272985458374, 30.0, 20.0 ],
					"presentation" : 1,
					"presentation_rect" : [ 483.0, 267.0, 30.0, 20.0 ],
					"text" : "P_2"
				}

			}
, 			{
				"box" : 				{
					"id" : "obj-23",
					"maxclass" : "comment",
					"numinlets" : 1,
					"numoutlets" : 0,
					"patching_rect" : [ 597.032671911375928, 228.985918521881104, 31.0, 20.0 ],
					"presentation" : 1,
					"presentation_rect" : [ 238.834948182106018, 266.990287601947784, 31.0, 20.0 ],
					"text" : "R_2"
				}

			}
, 			{
				"box" : 				{
					"id" : "obj-17",
					"maxclass" : "comment",
					"numinlets" : 1,
					"numoutlets" : 0,
					"patching_rect" : [ 724.313605683190417, 227.985918521881104, 25.0, 20.0 ],
					"presentation" : 1,
					"presentation_rect" : [ 358.766986072063446, 240.776695728302002, 25.0, 20.0 ],
					"text" : "I_1"
				}

			}
, 			{
				"box" : 				{
					"id" : "obj-15",
					"maxclass" : "comment",
					"numinlets" : 1,
					"numoutlets" : 0,
					"patching_rect" : [ 989.002055372510654, 225.985918521881104, 30.0, 20.0 ],
					"presentation" : 1,
					"presentation_rect" : [ 484.0, 241.0, 30.0, 20.0 ],
					"text" : "P_1"
				}

			}
, 			{
				"box" : 				{
					"id" : "obj-13",
					"maxclass" : "comment",
					"numinlets" : 1,
					"numoutlets" : 0,
					"patching_rect" : [ 463.422624298504388, 229.985918521881104, 31.0, 20.0 ],
					"presentation" : 1,
					"presentation_rect" : [ 240.776695728302002, 240.776695728302002, 31.0, 20.0 ],
					"text" : "R_1"
				}

			}
, 			{
				"box" : 				{
					"id" : "obj-8",
					"maxclass" : "comment",
					"numinlets" : 1,
					"numoutlets" : 0,
					"patching_rect" : [ 331.078399453844327, 232.517564058303833, 19.0, 20.0 ],
					"presentation" : 1,
					"presentation_rect" : [ 109.0, 255.048540055751801, 19.0, 20.0 ],
					"text" : "d"
				}

			}
, 			{
				"box" : 				{
					"id" : "obj-6",
					"maxclass" : "spectroscope~",
					"numinlets" : 2,
					"numoutlets" : 1,
					"outlettype" : [ "" ],
					"patching_rect" : [ 204.0, 430.0, 300.0, 100.0 ],
					"presentation" : 1,
					"presentation_rect" : [ 5.825242638587952, 5.185185015201569, 301.0, 133.0 ]
				}

			}
, 			{
				"box" : 				{
					"fontsize" : 10.0,
					"id" : "obj-44",
					"linecount" : 3,
					"maxclass" : "comment",
					"numinlets" : 1,
					"numoutlets" : 0,
					"patching_rect" : [ 1535.227258086204529, 269.318179249763489, 141.0, 40.0 ],
					"presentation" : 1,
					"presentation_linecount" : 3,
					"presentation_rect" : [ 4.820387125015259, 293.812295824289322, 172.0, 40.0 ],
					"text" : "Window control determines the type of window applied to the mod waves on eaach side"
				}

			}
, 			{
				"box" : 				{
					"id" : "obj-68",
					"maxclass" : "message",
					"numinlets" : 2,
					"numoutlets" : 1,
					"outlettype" : [ "" ],
					"patching_rect" : [ 1287.323960542678833, 332.394370555877686, 204.0, 22.0 ],
					"text" : "script sendbox windsizetxt hidden $1"
				}

			}
, 			{
				"box" : 				{
					"id" : "obj-67",
					"maxclass" : "newobj",
					"numinlets" : 2,
					"numoutlets" : 1,
					"outlettype" : [ "int" ],
					"patching_rect" : [ 1495.774667501449585, 273.239440202713013, 33.0, 22.0 ],
					"text" : "<= 2"
				}

			}
, 			{
				"box" : 				{
					"id" : "obj-65",
					"maxclass" : "message",
					"numinlets" : 2,
					"numoutlets" : 1,
					"outlettype" : [ "" ],
					"patching_rect" : [ 1495.774667501449585, 332.394370555877686, 191.0, 22.0 ],
					"text" : "script sendbox windsize hidden $1"
				}

			}
, 			{
				"box" : 				{
					"id" : "obj-63",
					"maxclass" : "newobj",
					"numinlets" : 1,
					"numoutlets" : 2,
					"outlettype" : [ "", "" ],
					"patching_rect" : [ 1495.774667501449585, 367.60563862323761, 67.0, 22.0 ],
					"save" : [ "#N", "thispatcher", ";", "#Q", "end", ";" ],
					"text" : "thispatcher"
				}

			}
, 			{
				"box" : 				{
					"format" : 6,
					"hidden" : 1,
					"id" : "obj-62",
					"maxclass" : "flonum",
					"maximum" : 1.0,
					"minimum" : 0.0,
					"numinlets" : 1,
					"numoutlets" : 2,
					"outlettype" : [ "", "bang" ],
					"parameter_enable" : 0,
					"patching_rect" : [ 1199.260126028741979, 222.454272985458374, 50.0, 22.0 ],
					"presentation" : 1,
					"presentation_rect" : [ 400.952432334423065, 302.812295824289322, 50.0, 22.0 ],
					"varname" : "windsize"
				}

			}
, 			{
				"box" : 				{
					"id" : "obj-60",
					"items" : [ "Sin", ",", "RampDwn", ",", "Rect", ",", "Gauss", ",", "Tukey" ],
					"maxclass" : "umenu",
					"numinlets" : 1,
					"numoutlets" : 3,
					"outlettype" : [ "int", "", "" ],
					"parameter_enable" : 0,
					"patching_rect" : [ 1330.33852810519079, 222.454272985458374, 100.0, 22.0 ],
					"presentation" : 1,
					"presentation_rect" : [ 222.834948182106018, 302.812295824289322, 100.0, 22.0 ]
				}

			}
, 			{
				"box" : 				{
					"id" : "obj-12",
					"maxclass" : "newobj",
					"numinlets" : 1,
					"numoutlets" : 1,
					"outlettype" : [ "" ],
					"patching_rect" : [ 150.704227328300476, 26.760563731193542, 77.0, 22.0 ],
					"text" : "loadmess 45"
				}

			}
, 			{
				"box" : 				{
					"id" : "obj-1",
					"maxclass" : "newobj",
					"numinlets" : 1,
					"numoutlets" : 1,
					"outlettype" : [ "" ],
					"patching_rect" : [ 56.338028907775879, 314.0, 83.0, 22.0 ],
					"text" : "loadmess 100"
				}

			}
, 			{
				"box" : 				{
					"id" : "obj-5",
					"linecount" : 2,
					"maxclass" : "comment",
					"numinlets" : 1,
					"numoutlets" : 0,
					"patching_rect" : [ 404.62677001953125, 308.5, 664.0, 33.0 ],
					"presentation" : 1,
					"presentation_linecount" : 2,
					"presentation_rect" : [ 2.087378680706024, 340.000043570995331, 653.333417057991028, 33.0 ],
					"text" : "Try removing the upper and lower numberbox boundaries on  R_1, R_2, I_1 and I_2. These variables have no strict range but have been limited here to reduce aliasing."
				}

			}
, 			{
				"box" : 				{
					"id" : "obj-58",
					"maxclass" : "comment",
					"numinlets" : 1,
					"numoutlets" : 0,
					"patching_rect" : [ 45.838028907775879, 274.239440202713013, 104.0, 20.0 ],
					"text" : "GenExpr code -->"
				}

			}
, 			{
				"box" : 				{
					"id" : "obj-56",
					"maxclass" : "comment",
					"numinlets" : 1,
					"numoutlets" : 0,
					"patching_rect" : [ 593.181812524795532, 95.454544544219971, 19.0, 20.0 ],
					"presentation" : 1,
					"presentation_rect" : [ 460.740725636482239, 51.111109435558319, 19.0, 20.0 ],
					"text" : "0",
					"textjustification" : 2
				}

			}
, 			{
				"box" : 				{
					"id" : "obj-55",
					"maxclass" : "comment",
					"numinlets" : 1,
					"numoutlets" : 0,
					"patching_rect" : [ 540.909085750579834, 93.181817293167114, 19.0, 20.0 ],
					"presentation" : 1,
					"presentation_rect" : [ 304.629619479179382, 96.703301429748535, 29.0, 20.0 ],
					"text" : "-2",
					"textjustification" : 2
				}

			}
, 			{
				"box" : 				{
					"id" : "obj-53",
					"maxclass" : "comment",
					"numinlets" : 1,
					"numoutlets" : 0,
					"patching_rect" : [ 545.454540252685547, 44.318181395530701, 19.0, 20.0 ],
					"presentation" : 1,
					"presentation_rect" : [ 309.629619479179382, 5.185185015201569, 25.0, 20.0 ],
					"text" : "2",
					"textjustification" : 2
				}

			}
, 			{
				"box" : 				{
					"id" : "obj-52",
					"maxclass" : "comment",
					"numinlets" : 1,
					"numoutlets" : 0,
					"patching_rect" : [ 593.181812524795532, 44.318181395530701, 19.0, 20.0 ],
					"presentation" : 1,
					"presentation_rect" : [ 460.740725636482239, 5.185185015201569, 19.0, 20.0 ],
					"text" : "1 ",
					"textjustification" : 2
				}

			}
, 			{
				"box" : 				{
					"id" : "obj-51",
					"maxclass" : "comment",
					"numinlets" : 1,
					"numoutlets" : 0,
					"patching_rect" : [ 593.181812524795532, 144.318180441856384, 23.0, 20.0 ],
					"presentation" : 1,
					"presentation_rect" : [ 457.022001385688782, 96.703301429748535, 23.0, 20.0 ],
					"text" : "-1 ",
					"textjustification" : 2
				}

			}
, 			{
				"box" : 				{
					"id" : "obj-41",
					"maxclass" : "newobj",
					"numinlets" : 1,
					"numoutlets" : 1,
					"outlettype" : [ "bang" ],
					"patching_rect" : [ 281.711311493601102, 127.454274296760559, 58.0, 22.0 ],
					"text" : "loadbang"
				}

			}
, 			{
				"box" : 				{
					"id" : "obj-40",
					"maxclass" : "newobj",
					"numinlets" : 1,
					"numoutlets" : 9,
					"outlettype" : [ "float", "int", "int", "int", "int", "int", "int", "float", "int" ],
					"patching_rect" : [ 281.711311493601102, 190.745412707328796, 122.0, 22.0 ],
					"text" : "t 0.5 1 1 0 0 0 0 0.5 0"
				}

			}
, 			{
				"box" : 				{
					"id" : "obj-28",
					"maxclass" : "button",
					"numinlets" : 1,
					"numoutlets" : 1,
					"outlettype" : [ "bang" ],
					"parameter_enable" : 0,
					"patching_rect" : [ 281.711311493601102, 157.834020733833313, 24.0, 24.0 ],
					"presentation" : 1,
					"presentation_rect" : [ 564.077662169933319, 265.048540055751801, 24.0, 24.0 ]
				}

			}
, 			{
				"box" : 				{
					"format" : 6,
					"id" : "obj-20",
					"maxclass" : "flonum",
					"maximum" : 2.0,
					"minimum" : -2.0,
					"numinlets" : 1,
					"numoutlets" : 2,
					"outlettype" : [ "", "bang" ],
					"parameter_enable" : 0,
					"patching_rect" : [ 806.024919799395889, 225.985918521881104, 50.0, 22.0 ],
					"presentation" : 1,
					"presentation_rect" : [ 308.0, 266.0, 50.0, 22.0 ]
				}

			}
, 			{
				"box" : 				{
					"format" : 6,
					"id" : "obj-22",
					"maxclass" : "flonum",
					"maximum" : 1.0,
					"minimum" : 0.0,
					"numinlets" : 1,
					"numoutlets" : 2,
					"outlettype" : [ "", "bang" ],
					"parameter_enable" : 0,
					"patching_rect" : [ 1067.483067001615382, 223.454272985458374, 50.0, 22.0 ],
					"presentation" : 1,
					"presentation_rect" : [ 433.0, 266.0, 50.0, 22.0 ]
				}

			}
, 			{
				"box" : 				{
					"format" : 6,
					"id" : "obj-24",
					"maxclass" : "flonum",
					"maximum" : 5.0,
					"minimum" : 0.0,
					"numinlets" : 1,
					"numoutlets" : 2,
					"outlettype" : [ "", "bang" ],
					"parameter_enable" : 0,
					"patching_rect" : [ 543.868115646498609, 228.985918521881104, 50.0, 22.0 ],
					"presentation" : 1,
					"presentation_rect" : [ 188.349511981010437, 266.019413828849792, 50.0, 22.0 ]
				}

			}
, 			{
				"box" : 				{
					"format" : 6,
					"id" : "obj-18",
					"maxclass" : "flonum",
					"maximum" : 2.0,
					"minimum" : -2.0,
					"numinlets" : 1,
					"numoutlets" : 2,
					"outlettype" : [ "", "bang" ],
					"parameter_enable" : 0,
					"patching_rect" : [ 674.946517722947192, 227.985918521881104, 50.0, 22.0 ],
					"presentation" : 1,
					"presentation_rect" : [ 307.766986072063446, 239.776695728302002, 50.0, 22.0 ]
				}

			}
, 			{
				"box" : 				{
					"format" : 6,
					"id" : "obj-16",
					"maxclass" : "flonum",
					"maximum" : 1.0,
					"minimum" : 0.0,
					"numinlets" : 1,
					"numoutlets" : 2,
					"outlettype" : [ "", "bang" ],
					"parameter_enable" : 0,
					"patching_rect" : [ 937.103321875844699, 225.985918521881104, 50.0, 22.0 ],
					"presentation" : 1,
					"presentation_rect" : [ 433.0, 240.0, 50.0, 22.0 ]
				}

			}
, 			{
				"box" : 				{
					"format" : 6,
					"id" : "obj-14",
					"maxclass" : "flonum",
					"maximum" : 5.0,
					"minimum" : 0.0,
					"numinlets" : 1,
					"numoutlets" : 2,
					"outlettype" : [ "", "bang" ],
					"parameter_enable" : 0,
					"patching_rect" : [ 412.789713570049798, 229.985918521881104, 50.0, 22.0 ],
					"presentation" : 1,
					"presentation_rect" : [ 188.349511981010437, 239.80582195520401, 50.0, 22.0 ]
				}

			}
, 			{
				"box" : 				{
					"format" : 6,
					"id" : "obj-4",
					"maxclass" : "flonum",
					"maximum" : 1.0,
					"minimum" : 0.0,
					"numinlets" : 1,
					"numoutlets" : 2,
					"outlettype" : [ "", "bang" ],
					"parameter_enable" : 0,
					"patching_rect" : [ 281.711311493601102, 231.517564058303833, 50.0, 22.0 ],
					"presentation" : 1,
					"presentation_rect" : [ 53.0, 254.048540055751801, 50.0, 22.0 ]
				}

			}
, 			{
				"box" : 				{
					"id" : "obj-50",
					"maxclass" : "comment",
					"numinlets" : 1,
					"numoutlets" : 0,
					"patching_rect" : [ 377.338028907775879, 388.0, 78.0, 20.0 ],
					"presentation" : 1,
					"presentation_rect" : [ 484.946145176887512, 123.076929092407227, 78.0, 20.0 ],
					"text" : "Output Wave"
				}

			}
, 			{
				"box" : 				{
					"id" : "obj-49",
					"maxclass" : "comment",
					"numinlets" : 1,
					"numoutlets" : 0,
					"patching_rect" : [ 1315.492974996566772, 387.323948740959167, 47.0, 20.0 ],
					"presentation" : 1,
					"presentation_rect" : [ 363.378639578819275, 123.076929092407227, 47.0, 20.0 ],
					"text" : "Phasor"
				}

			}
, 			{
				"box" : 				{
					"id" : "obj-47",
					"maxclass" : "kslider",
					"numinlets" : 2,
					"numoutlets" : 2,
					"offset" : 19,
					"outlettype" : [ "int", "int" ],
					"parameter_enable" : 0,
					"patching_rect" : [ 150.704227328300476, 54.929578185081482, 336.0, 53.0 ],
					"presentation" : 1,
					"presentation_rect" : [ 5.825242638587952, 145.631065964698792, 588.0, 87.0 ]
				}

			}
, 			{
				"box" : 				{
					"id" : "obj-46",
					"maxclass" : "gain~",
					"multichannelvariant" : 0,
					"numinlets" : 1,
					"numoutlets" : 2,
					"outlettype" : [ "signal", "" ],
					"parameter_enable" : 0,
					"patching_rect" : [ 154.338028907775879, 353.0, 23.913043022155762, 165.434778690338135 ],
					"presentation" : 1,
					"presentation_rect" : [ 612.476830363273621, 7.692308068275452, 29.670331120491028, 233.021073758602142 ]
				}

			}
, 			{
				"box" : 				{
					"bgcolor" : [ 0.15054789185524, 0.150570943951607, 0.150536894798279, 1.0 ],
					"bufsize" : 256,
					"calccount" : 2,
					"id" : "obj-43",
					"maxclass" : "scope~",
					"numinlets" : 2,
					"numoutlets" : 0,
					"patching_rect" : [ 208.338028907775879, 353.0, 164.565215826034546, 61.956520557403564 ],
					"presentation" : 1,
					"presentation_rect" : [ 480.219803690910339, 6.593406915664673, 126.38889491558075, 109.722227454185486 ],
					"range" : [ -1.2, 1.2 ]
				}

			}
, 			{
				"box" : 				{
					"bgcolor" : [ 0.15054789185524, 0.150570943951607, 0.150536894798279, 1.0 ],
					"bufsize" : 256,
					"calccount" : 2,
					"id" : "obj-3",
					"maxclass" : "scope~",
					"numinlets" : 2,
					"numoutlets" : 0,
					"patching_rect" : [ 1149.29578971862793, 363.380286455154419, 164.130431652069092, 44.565216541290283 ],
					"presentation" : 1,
					"presentation_rect" : [ 335.629619479179382, 6.249995708465576, 126.38889491558075, 109.722227454185486 ],
					"range" : [ -2.0, 2.0 ]
				}

			}
, 			{
				"box" : 				{
					"id" : "obj-38",
					"maxclass" : "ezdac~",
					"numinlets" : 2,
					"numoutlets" : 0,
					"patching_rect" : [ 154.338028907775879, 536.0, 45.0, 45.0 ],
					"presentation" : 1,
					"presentation_rect" : [ 601.087942004203796, 242.548540055751801, 45.0, 45.0 ]
				}

			}
, 			{
				"box" : 				{
					"format" : 6,
					"id" : "obj-9",
					"maxclass" : "flonum",
					"numinlets" : 1,
					"numoutlets" : 2,
					"outlettype" : [ "", "bang" ],
					"parameter_enable" : 0,
					"patching_rect" : [ 150.704227328300476, 238.028172135353088, 50.0, 22.0 ]
				}

			}
, 			{
				"box" : 				{
					"id" : "obj-2",
					"maxclass" : "newobj",
					"numinlets" : 10,
					"numoutlets" : 2,
					"outlettype" : [ "signal", "signal" ],
					"patching_rect" : [ 150.632909417152405, 273.239440202713013, 1198.705618688038385, 22.0 ],
					"text" : "gen~ WPPM"
				}

			}
, 			{
				"box" : 				{
					"angle" : 270.0,
					"bgcolor" : [ 0.211764705882353, 0.211764705882353, 0.211764705882353, 1.0 ],
					"id" : "obj-25",
					"maxclass" : "panel",
					"mode" : 0,
					"numinlets" : 1,
					"numoutlets" : 0,
					"patching_rect" : [ 526.136358618736267, 37.499999642372131, 128.0, 128.0 ],
					"presentation" : 1,
					"presentation_rect" : [ 3.883495092391968, 234.95145308971405, 170.873784065246582, 60.1941739320755 ],
					"proportion" : 0.39,
					"saved_attribute_attributes" : 					{
						"bgfillcolor" : 						{
							"expression" : "themecolor.theme_bubble_bgcolor"
						}

					}

				}

			}
, 			{
				"box" : 				{
					"angle" : 270.0,
					"bgcolor" : [ 0.211764705882353, 0.211764705882353, 0.211764705882353, 1.0 ],
					"id" : "obj-26",
					"maxclass" : "panel",
					"mode" : 0,
					"numinlets" : 1,
					"numoutlets" : 0,
					"patching_rect" : [ 535.227267622947693, 45.454545021057129, 128.0, 128.0 ],
					"presentation" : 1,
					"presentation_rect" : [ 179.61164802312851, 234.95145308971405, 414.533983111381531, 60.1941739320755 ],
					"proportion" : 0.39,
					"saved_attribute_attributes" : 					{
						"bgfillcolor" : 						{
							"expression" : "themecolor.theme_bubble_bgcolor"
						}

					}

				}

			}
, 			{
				"box" : 				{
					"angle" : 270.0,
					"bgcolor" : [ 0.211764705882353, 0.211764705882353, 0.211764705882353, 1.0 ],
					"id" : "obj-73",
					"maxclass" : "panel",
					"mode" : 0,
					"numinlets" : 1,
					"numoutlets" : 0,
					"patching_rect" : [ 537.499994874000549, 45.454545021057129, 128.0, 128.0 ],
					"presentation" : 1,
					"presentation_rect" : [ 179.61164802312851, 297.145627021789551, 414.285767376422882, 33.333337604999542 ],
					"proportion" : 0.39,
					"saved_attribute_attributes" : 					{
						"bgfillcolor" : 						{
							"expression" : "themecolor.theme_bubble_bgcolor"
						}

					}

				}

			}
, 			{
				"box" : 				{
					"angle" : 270.0,
					"bgcolor" : [ 0.351561855729786, 0.351561766676534, 0.351561789947572, 1.0 ],
					"id" : "obj-39",
					"maxclass" : "panel",
					"mode" : 0,
					"numinlets" : 1,
					"numoutlets" : 0,
					"patching_rect" : [ 545.454540252685547, 60.227272152900696, 128.0, 128.0 ],
					"presentation" : 1,
					"presentation_rect" : [ 1.941747546195984, 0.970873773097992, 653.125, 334.375 ],
					"proportion" : 0.39,
					"saved_attribute_attributes" : 					{
						"bgfillcolor" : 						{
							"expression" : "themecolor.theme_accentcolor"
						}

					}

				}

			}
 ],
		"lines" : [ 			{
				"patchline" : 				{
					"destination" : [ "obj-46", 0 ],
					"midpoints" : [ 65.838028907775879, 343.310637235641479, 163.838028907775879, 343.310637235641479 ],
					"source" : [ "obj-1", 0 ]
				}

			}
, 			{
				"patchline" : 				{
					"destination" : [ "obj-47", 0 ],
					"source" : [ "obj-12", 0 ]
				}

			}
, 			{
				"patchline" : 				{
					"destination" : [ "obj-2", 2 ],
					"source" : [ "obj-14", 0 ]
				}

			}
, 			{
				"patchline" : 				{
					"destination" : [ "obj-2", 6 ],
					"source" : [ "obj-16", 0 ]
				}

			}
, 			{
				"patchline" : 				{
					"destination" : [ "obj-2", 4 ],
					"source" : [ "obj-18", 0 ]
				}

			}
, 			{
				"patchline" : 				{
					"destination" : [ "obj-3", 0 ],
					"midpoints" : [ 1339.83852810519079, 302.024149298667908, 1158.79578971862793, 302.024149298667908 ],
					"source" : [ "obj-2", 1 ]
				}

			}
, 			{
				"patchline" : 				{
					"destination" : [ "obj-43", 0 ],
					"order" : 0,
					"source" : [ "obj-2", 0 ]
				}

			}
, 			{
				"patchline" : 				{
					"destination" : [ "obj-46", 0 ],
					"order" : 2,
					"source" : [ "obj-2", 0 ]
				}

			}
, 			{
				"patchline" : 				{
					"destination" : [ "obj-6", 0 ],
					"order" : 1,
					"source" : [ "obj-2", 0 ]
				}

			}
, 			{
				"patchline" : 				{
					"destination" : [ "obj-2", 5 ],
					"source" : [ "obj-20", 0 ]
				}

			}
, 			{
				"patchline" : 				{
					"destination" : [ "obj-2", 7 ],
					"source" : [ "obj-22", 0 ]
				}

			}
, 			{
				"patchline" : 				{
					"destination" : [ "obj-2", 3 ],
					"source" : [ "obj-24", 0 ]
				}

			}
, 			{
				"patchline" : 				{
					"destination" : [ "obj-40", 0 ],
					"source" : [ "obj-28", 0 ]
				}

			}
, 			{
				"patchline" : 				{
					"destination" : [ "obj-2", 1 ],
					"source" : [ "obj-4", 0 ]
				}

			}
, 			{
				"patchline" : 				{
					"destination" : [ "obj-14", 0 ],
					"midpoints" : [ 304.086311493601102, 221.36566561460495, 422.289713570049798, 221.36566561460495 ],
					"source" : [ "obj-40", 1 ]
				}

			}
, 			{
				"patchline" : 				{
					"destination" : [ "obj-16", 0 ],
					"midpoints" : [ 355.586311493601102, 219.36566561460495, 946.603321875844699, 219.36566561460495 ],
					"source" : [ "obj-40", 5 ]
				}

			}
, 			{
				"patchline" : 				{
					"destination" : [ "obj-18", 0 ],
					"midpoints" : [ 329.836311493601102, 220.36566561460495, 684.446517722947192, 220.36566561460495 ],
					"source" : [ "obj-40", 3 ]
				}

			}
, 			{
				"patchline" : 				{
					"destination" : [ "obj-20", 0 ],
					"midpoints" : [ 342.711311493601102, 219.86566561460495, 815.524919799395889, 219.86566561460495 ],
					"source" : [ "obj-40", 4 ]
				}

			}
, 			{
				"patchline" : 				{
					"destination" : [ "obj-22", 0 ],
					"midpoints" : [ 368.461311493601102, 218.099842846393585, 1076.983067001615382, 218.099842846393585 ],
					"source" : [ "obj-40", 6 ]
				}

			}
, 			{
				"patchline" : 				{
					"destination" : [ "obj-24", 0 ],
					"midpoints" : [ 316.961311493601102, 220.86566561460495, 553.368115646498609, 220.86566561460495 ],
					"source" : [ "obj-40", 2 ]
				}

			}
, 			{
				"patchline" : 				{
					"destination" : [ "obj-4", 0 ],
					"midpoints" : [ 291.211311493601102, 220.728387355804443, 291.211311493601102, 220.728387355804443 ],
					"source" : [ "obj-40", 0 ]
				}

			}
, 			{
				"patchline" : 				{
					"destination" : [ "obj-60", 0 ],
					"midpoints" : [ 394.211311493601102, 217.599842846393585, 1339.83852810519079, 217.599842846393585 ],
					"source" : [ "obj-40", 8 ]
				}

			}
, 			{
				"patchline" : 				{
					"destination" : [ "obj-62", 0 ],
					"midpoints" : [ 381.336311493601102, 217.599842846393585, 1208.760126028741979, 217.599842846393585 ],
					"source" : [ "obj-40", 7 ]
				}

			}
, 			{
				"patchline" : 				{
					"destination" : [ "obj-28", 0 ],
					"source" : [ "obj-41", 0 ]
				}

			}
, 			{
				"patchline" : 				{
					"destination" : [ "obj-38", 1 ],
					"order" : 0,
					"source" : [ "obj-46", 0 ]
				}

			}
, 			{
				"patchline" : 				{
					"destination" : [ "obj-38", 0 ],
					"order" : 1,
					"source" : [ "obj-46", 0 ]
				}

			}
, 			{
				"patchline" : 				{
					"destination" : [ "obj-9", 0 ],
					"source" : [ "obj-47", 0 ]
				}

			}
, 			{
				"patchline" : 				{
					"destination" : [ "obj-2", 9 ],
					"order" : 1,
					"source" : [ "obj-60", 0 ]
				}

			}
, 			{
				"patchline" : 				{
					"destination" : [ "obj-67", 0 ],
					"midpoints" : [ 1339.83852810519079, 257.732396841049194, 1505.274667501449585, 257.732396841049194 ],
					"order" : 0,
					"source" : [ "obj-60", 0 ]
				}

			}
, 			{
				"patchline" : 				{
					"destination" : [ "obj-2", 8 ],
					"source" : [ "obj-62", 0 ]
				}

			}
, 			{
				"patchline" : 				{
					"destination" : [ "obj-63", 0 ],
					"source" : [ "obj-65", 0 ]
				}

			}
, 			{
				"patchline" : 				{
					"destination" : [ "obj-65", 0 ],
					"midpoints" : [ 1505.274667501449585, 313.232394695281982, 1505.274667501449585, 313.232394695281982 ],
					"order" : 0,
					"source" : [ "obj-67", 0 ]
				}

			}
, 			{
				"patchline" : 				{
					"destination" : [ "obj-68", 0 ],
					"midpoints" : [ 1505.274667501449585, 313.232394695281982, 1296.823960542678833, 313.232394695281982 ],
					"order" : 1,
					"source" : [ "obj-67", 0 ]
				}

			}
, 			{
				"patchline" : 				{
					"destination" : [ "obj-63", 0 ],
					"midpoints" : [ 1296.823960542678833, 359.722998559474945, 1505.274667501449585, 359.722998559474945 ],
					"source" : [ "obj-68", 0 ]
				}

			}
, 			{
				"patchline" : 				{
					"destination" : [ "obj-2", 0 ],
					"midpoints" : [ 160.204227328300476, 265.945841908454895, 160.132909417152405, 265.945841908454895 ],
					"source" : [ "obj-9", 0 ]
				}

			}
 ],
		"originid" : "pat-25",
		"dependency_cache" : [ 			{
				"name" : "WPPM.gendsp",
				"bootpath" : "~/Downloads/WavePulsePhaseModulation-Oscillator-main/WPPM-Oscillator",
				"patcherrelativepath" : ".",
				"type" : "gDSP",
				"implicit" : 1
			}
 ],
		"autosave" : 0
	}

}
