{
	"patcher" : 	{
		"fileversion" : 1,
		"appversion" : 		{
			"major" : 9,
			"minor" : 0,
			"revision" : 1,
			"architecture" : "x64",
			"modernui" : 1
		}
,
		"classnamespace" : "dsp.gen",
		"rect" : [ -62.0, 133.0, 1010.0, 649.0 ],
		"gridsize" : [ 15.0, 15.0 ],
		"boxes" : [ 			{
				"box" : 				{
					"id" : "obj-17",
					"maxclass" : "newobj",
					"numinlets" : 1,
					"numoutlets" : 1,
					"outlettype" : [ "" ],
					"patching_rect" : [ 47.0, 700.0, 27.0, 22.0 ],
					"text" : "* -1"
				}

			}
, 			{
				"box" : 				{
					"id" : "obj-1",
					"maxclass" : "newobj",
					"numinlets" : 1,
					"numoutlets" : 1,
					"outlettype" : [ "" ],
					"patching_rect" : [ 47.0, 726.0, 49.0, 22.0 ],
					"text" : "dcblock"
				}

			}
, 			{
				"box" : 				{
					"id" : "obj-16",
					"maxclass" : "newobj",
					"numinlets" : 0,
					"numoutlets" : 1,
					"outlettype" : [ "" ],
					"patching_rect" : [ 759.799999999999955, 6.0, 35.0, 22.0 ],
					"text" : "in 10"
				}

			}
, 			{
				"box" : 				{
					"id" : "obj-15",
					"maxclass" : "newobj",
					"numinlets" : 0,
					"numoutlets" : 1,
					"outlettype" : [ "" ],
					"patching_rect" : [ 680.600000000000023, 6.0, 28.0, 22.0 ],
					"text" : "in 9"
				}

			}
, 			{
				"box" : 				{
					"id" : "obj-11",
					"maxclass" : "newobj",
					"numinlets" : 0,
					"numoutlets" : 1,
					"outlettype" : [ "" ],
					"patching_rect" : [ 601.399999999999977, 6.0, 28.0, 22.0 ],
					"text" : "in 8"
				}

			}
, 			{
				"box" : 				{
					"id" : "obj-12",
					"maxclass" : "newobj",
					"numinlets" : 0,
					"numoutlets" : 1,
					"outlettype" : [ "" ],
					"patching_rect" : [ 522.200000000000045, 6.0, 28.0, 22.0 ],
					"text" : "in 7"
				}

			}
, 			{
				"box" : 				{
					"id" : "obj-13",
					"maxclass" : "newobj",
					"numinlets" : 0,
					"numoutlets" : 1,
					"outlettype" : [ "" ],
					"patching_rect" : [ 442.800000000000011, 6.0, 28.0, 22.0 ],
					"text" : "in 6"
				}

			}
, 			{
				"box" : 				{
					"id" : "obj-14",
					"maxclass" : "newobj",
					"numinlets" : 0,
					"numoutlets" : 1,
					"outlettype" : [ "" ],
					"patching_rect" : [ 363.800000000000011, 6.0, 28.0, 22.0 ],
					"text" : "in 5"
				}

			}
, 			{
				"box" : 				{
					"id" : "obj-10",
					"maxclass" : "newobj",
					"numinlets" : 0,
					"numoutlets" : 1,
					"outlettype" : [ "" ],
					"patching_rect" : [ 284.600000000000023, 6.0, 28.0, 22.0 ],
					"text" : "in 4"
				}

			}
, 			{
				"box" : 				{
					"id" : "obj-9",
					"maxclass" : "newobj",
					"numinlets" : 0,
					"numoutlets" : 1,
					"outlettype" : [ "" ],
					"patching_rect" : [ 205.400000000000006, 6.0, 28.0, 22.0 ],
					"text" : "in 3"
				}

			}
, 			{
				"box" : 				{
					"id" : "obj-8",
					"maxclass" : "newobj",
					"numinlets" : 0,
					"numoutlets" : 1,
					"outlettype" : [ "" ],
					"patching_rect" : [ 126.199999999999989, 6.0, 28.0, 22.0 ],
					"text" : "in 2"
				}

			}
, 			{
				"box" : 				{
					"id" : "obj-4",
					"maxclass" : "newobj",
					"numinlets" : 1,
					"numoutlets" : 1,
					"outlettype" : [ "" ],
					"patching_rect" : [ 47.0, 672.0, 27.0, 22.0 ],
					"text" : "cos"
				}

			}
, 			{
				"box" : 				{
					"id" : "obj-3",
					"maxclass" : "newobj",
					"numinlets" : 1,
					"numoutlets" : 1,
					"outlettype" : [ "" ],
					"patching_rect" : [ 47.0, 642.0, 56.0, 22.0 ],
					"text" : "* TWOPI"
				}

			}
, 			{
				"box" : 				{
					"id" : "obj-2",
					"maxclass" : "newobj",
					"numinlets" : 1,
					"numoutlets" : 0,
					"patching_rect" : [ 136.0, 758.0, 35.0, 22.0 ],
					"text" : "out 2"
				}

			}
, 			{
				"box" : 				{
					"id" : "obj-7",
					"maxclass" : "newobj",
					"numinlets" : 1,
					"numoutlets" : 0,
					"patching_rect" : [ 47.0, 758.0, 35.0, 22.0 ],
					"text" : "out 1"
				}

			}
, 			{
				"box" : 				{
					"id" : "obj-6",
					"maxclass" : "newobj",
					"numinlets" : 0,
					"numoutlets" : 1,
					"outlettype" : [ "" ],
					"patching_rect" : [ 47.0, 6.0, 28.0, 22.0 ],
					"text" : "in 1"
				}

			}
, 			{
				"box" : 				{
					"code" : "/* ===========================/*\r\n\timplementation of WPPM\r\n/* ===========================*/\r\n\r\n//smoother\r\nsmooth(x, time) {\r\n\tHistory prev;\r\n\tprev = prev + time * (x - prev);\r\n\t\r\n\treturn prev;\r\n}\r\n\r\nw(t, n, x) {\r\n\tif(t==0){//sin window\r\n\t\treturn sin(PI*x);\r\n\t}\r\n\tif(t==1) {//ramp window\r\n\t\treturn 1-x;\r\n\t}\r\n\tif(t==2) {//square window\r\n\t\treturn 1;\r\n\t}\r\n\tif(t==3) {//Gauss Window\r\n\t\treturn exp(-1*pow((x-0.5)/((n*0.2)+0.05),2));\r\n\t}\r\n\tif(t==4) {//Tukey Window\r\n\t\tif(x > 0.5){\r\n\t\t\tx = 1-x;\r\n\t\t}\r\n\t\tif(x < n/2) {\r\n\t\t\treturn 0.5*(1-cos((TWOPI*x) / n));\r\n\t\t\t\r\n\t\t}else {\r\n\t\t\treturn 1;\r\n\t\t}\r\n\t}\r\n}\r\n\r\n//Windowed Phase Modulation wave\r\ng(x, I, R, P){\r\n\treturn I * w(0,0,x) * sin(TWOPI*R*x + P);\r\n}\r\n\r\n//Wave Pulse Phase Modulation Phase Signal\r\nWPPM(x, d, Ra, Rb, Ia, Ib, Pa, Pb, t, n){\r\n\tif(x < d)\r\n\t\treturn (x/(2*d)) + w(t,n,d/2) * g(x/d, Ia, Ra, Pa);\r\n\telse if (d <= x)\r\n\t\treturn 0.5 + (x-d)/(2*(1-d)) + w(t,n,1-(d/2)) * g((x-d)/(1-d), Ib, Rb, Pb);\r\n}\r\n\r\n\r\n//parameter inputs, using Ra and Rb instead of R_1 and R_2 ect\r\nHistory phase(0);\r\nincrement = mtof(in1) / samplerate;\t//frequency\r\n\r\nd = smooth(in2, 0.05);\t\t//Duration Ratio\r\n\r\nRa = smooth(in3, 0.05);\t\t//Mod Ratio 1\r\nRb = smooth(in4, 0.05);\t\t//Mod Ratio 2\r\n\r\nIa = smooth(in5, 0.05);\t\t//Index 1\r\nIb = smooth(in6, 0.05);\t\t//Index 2\r\n\r\nPa = smooth(in7, 0.05);\t\t//Phase 1\r\nPb = smooth(in8, 0.05);\t\t//Phase 2\r\n\r\nWs = smooth(in9, 0.05);\t\t//window shape\r\nWt = in10;\t\t\t\t\t//window type\r\n\r\n\r\n//output\r\nout1 = WPPM(phase, d, Ra, Rb, Ia, Ib, Pa, Pb, Wt, Ws);\r\n\r\n//reset phase\r\nphase += increment;\nwhile (phase > 1.0) phase -= 1.0;",
					"fontface" : 0,
					"fontname" : "<Monospaced>",
					"fontsize" : 12.0,
					"id" : "obj-5",
					"maxclass" : "codebox",
					"numinlets" : 10,
					"numoutlets" : 1,
					"outlettype" : [ "" ],
					"patching_rect" : [ 47.0, 44.0, 731.799999999999955, 577.0 ]
				}

			}
 ],
		"lines" : [ 			{
				"patchline" : 				{
					"destination" : [ "obj-7", 0 ],
					"source" : [ "obj-1", 0 ]
				}

			}
, 			{
				"patchline" : 				{
					"destination" : [ "obj-5", 3 ],
					"source" : [ "obj-10", 0 ]
				}

			}
, 			{
				"patchline" : 				{
					"destination" : [ "obj-5", 7 ],
					"source" : [ "obj-11", 0 ]
				}

			}
, 			{
				"patchline" : 				{
					"destination" : [ "obj-5", 6 ],
					"source" : [ "obj-12", 0 ]
				}

			}
, 			{
				"patchline" : 				{
					"destination" : [ "obj-5", 5 ],
					"source" : [ "obj-13", 0 ]
				}

			}
, 			{
				"patchline" : 				{
					"destination" : [ "obj-5", 4 ],
					"source" : [ "obj-14", 0 ]
				}

			}
, 			{
				"patchline" : 				{
					"destination" : [ "obj-5", 8 ],
					"source" : [ "obj-15", 0 ]
				}

			}
, 			{
				"patchline" : 				{
					"destination" : [ "obj-5", 9 ],
					"source" : [ "obj-16", 0 ]
				}

			}
, 			{
				"patchline" : 				{
					"destination" : [ "obj-1", 0 ],
					"source" : [ "obj-17", 0 ]
				}

			}
, 			{
				"patchline" : 				{
					"destination" : [ "obj-4", 0 ],
					"source" : [ "obj-3", 0 ]
				}

			}
, 			{
				"patchline" : 				{
					"destination" : [ "obj-17", 0 ],
					"source" : [ "obj-4", 0 ]
				}

			}
, 			{
				"patchline" : 				{
					"destination" : [ "obj-2", 0 ],
					"midpoints" : [ 56.5, 632.7890625, 145.5, 632.7890625 ],
					"order" : 0,
					"source" : [ "obj-5", 0 ]
				}

			}
, 			{
				"patchline" : 				{
					"destination" : [ "obj-3", 0 ],
					"order" : 1,
					"source" : [ "obj-5", 0 ]
				}

			}
, 			{
				"patchline" : 				{
					"destination" : [ "obj-5", 0 ],
					"source" : [ "obj-6", 0 ]
				}

			}
, 			{
				"patchline" : 				{
					"destination" : [ "obj-5", 1 ],
					"source" : [ "obj-8", 0 ]
				}

			}
, 			{
				"patchline" : 				{
					"destination" : [ "obj-5", 2 ],
					"source" : [ "obj-9", 0 ]
				}

			}
 ],
		"originid" : "pat-15"
	}

}
